<mxfile host="app.diagrams.net" agent="Mozilla/5.0 (Windows NT 10.0; Win64; x64) AppleWebKit/537.36 (KHTML, like Gecko) Chrome/134.0.0.0 Safari/537.36" version="26.1.0">
  <diagram name="第 1 页" id="-K6S25orHFyxIdPImdLN">
    <mxGraphModel dx="1434" dy="772" grid="1" gridSize="10" guides="1" tooltips="1" connect="1" arrows="1" fold="1" page="1" pageScale="1" pageWidth="827" pageHeight="1169" math="0" shadow="0">
      <root>
        <mxCell id="0" />
        <mxCell id="1" parent="0" />
        <mxCell id="M7dMgFpauCtUiVN4xOWz-8" value="" style="edgeStyle=orthogonalEdgeStyle;rounded=0;orthogonalLoop=1;jettySize=auto;html=1;" edge="1" parent="1" source="M7dMgFpauCtUiVN4xOWz-6" target="M7dMgFpauCtUiVN4xOWz-7">
          <mxGeometry relative="1" as="geometry" />
        </mxCell>
        <mxCell id="M7dMgFpauCtUiVN4xOWz-6" value="RGBA8 单一256*256Tile渲染完毕" style="rounded=0;whiteSpace=wrap;html=1;" vertex="1" parent="1">
          <mxGeometry x="40" y="70" width="120" height="60" as="geometry" />
        </mxCell>
        <mxCell id="M7dMgFpauCtUiVN4xOWz-10" value="" style="edgeStyle=orthogonalEdgeStyle;rounded=0;orthogonalLoop=1;jettySize=auto;html=1;" edge="1" parent="1" source="M7dMgFpauCtUiVN4xOWz-7" target="M7dMgFpauCtUiVN4xOWz-9">
          <mxGeometry relative="1" as="geometry" />
        </mxCell>
        <mxCell id="M7dMgFpauCtUiVN4xOWz-12" style="edgeStyle=orthogonalEdgeStyle;rounded=0;orthogonalLoop=1;jettySize=auto;html=1;entryX=0.5;entryY=0;entryDx=0;entryDy=0;" edge="1" parent="1" source="M7dMgFpauCtUiVN4xOWz-7" target="M7dMgFpauCtUiVN4xOWz-11">
          <mxGeometry relative="1" as="geometry" />
        </mxCell>
        <mxCell id="M7dMgFpauCtUiVN4xOWz-7" value="申请一个 256*256 r32g32b32a32 RenderTexture" style="whiteSpace=wrap;html=1;rounded=0;" vertex="1" parent="1">
          <mxGeometry x="240" y="70" width="120" height="60" as="geometry" />
        </mxCell>
        <mxCell id="M7dMgFpauCtUiVN4xOWz-18" value="" style="edgeStyle=orthogonalEdgeStyle;rounded=0;orthogonalLoop=1;jettySize=auto;html=1;" edge="1" parent="1" source="M7dMgFpauCtUiVN4xOWz-9" target="M7dMgFpauCtUiVN4xOWz-17">
          <mxGeometry relative="1" as="geometry" />
        </mxCell>
        <mxCell id="M7dMgFpauCtUiVN4xOWz-9" value="申请一个 64*64 ASTC4x4 Texture2D" style="whiteSpace=wrap;html=1;rounded=0;" vertex="1" parent="1">
          <mxGeometry x="440" y="70" width="120" height="60" as="geometry" />
        </mxCell>
        <mxCell id="M7dMgFpauCtUiVN4xOWz-15" style="edgeStyle=orthogonalEdgeStyle;rounded=0;orthogonalLoop=1;jettySize=auto;html=1;entryX=0.5;entryY=1;entryDx=0;entryDy=0;" edge="1" parent="1" source="M7dMgFpauCtUiVN4xOWz-11" target="M7dMgFpauCtUiVN4xOWz-9">
          <mxGeometry relative="1" as="geometry" />
        </mxCell>
        <mxCell id="M7dMgFpauCtUiVN4xOWz-11" value="发起ComputeShader 执行 Astc编码" style="rounded=0;whiteSpace=wrap;html=1;" vertex="1" parent="1">
          <mxGeometry x="240" y="200" width="120" height="60" as="geometry" />
        </mxCell>
        <mxCell id="M7dMgFpauCtUiVN4xOWz-14" value="Input" style="text;html=1;align=center;verticalAlign=middle;whiteSpace=wrap;rounded=0;" vertex="1" parent="1">
          <mxGeometry x="304" y="150" width="60" height="30" as="geometry" />
        </mxCell>
        <mxCell id="M7dMgFpauCtUiVN4xOWz-16" value="将编码后的ASTC数据拷贝到 Texture2D" style="text;html=1;align=center;verticalAlign=middle;whiteSpace=wrap;rounded=0;" vertex="1" parent="1">
          <mxGeometry x="430" y="240" width="120" height="30" as="geometry" />
        </mxCell>
        <mxCell id="M7dMgFpauCtUiVN4xOWz-17" value="TileTexture 2DArray" style="whiteSpace=wrap;html=1;rounded=0;" vertex="1" parent="1">
          <mxGeometry x="685" y="70" width="120" height="60" as="geometry" />
        </mxCell>
        <mxCell id="M7dMgFpauCtUiVN4xOWz-20" value="将结果拷贝到TileTexture 某一个固定Index" style="text;html=1;align=center;verticalAlign=middle;whiteSpace=wrap;rounded=0;" vertex="1" parent="1">
          <mxGeometry x="577" y="53" width="91" height="30" as="geometry" />
        </mxCell>
      </root>
    </mxGraphModel>
  </diagram>
</mxfile>
